PathFileType	4	(X/Y/Z)	C:/Users/beibeiliu/ov580/test_trc/capture2\sequence.31_training_dense_right.trc
DataRate	CameraRate	NumFrames	NumMarkers	Units	OrigDataRate	OrigDataStartFrame	OrigNumFrames
120	120	8	19	mm	120	251	400
Frame#	Time	ThumbCMC			ThumbMCP			ThumbIP			ThumbTip			IndexMCP			IndexPIP			IndexTip			MiddleMCP			MiddlePIP			MiddleTip			RingMCP			RingPIP			RingTip			PinkyMCP			PinkyPIP			PinkyTip			BackHand1			BackHand2			BackHand3	
		X0	Y0	Z0	X1	Y1	Z1	X2	Y2	Z2	X3	Y3	Z3	X4	Y4	Z4	X5	Y5	Z5	X6	Y6	Z6	X7	Y7	Z7	X8	Y8	Z8	X9	Y9	Z9	X10	Y10	Z10	X11	Y11	Z11	X12	Y12	Z12	X13	Y13	Z13	X14	Y14	Z14	X15	Y15	Z15	X16	Y16	Z16	X17	Y17	Z17	X18	Y18	Z18	
250	2.08333	101.028	4.9461	24.8597	100.357	-13.0302	-4.25062	107.108	-12.3142	-34.0084	130.497	-2.30018	-46.5592	100.29	50.0637	-33.5685	103.944	43.0237	-60.0001	108.967	12.0864	-66.9759	126.435	46.6393	-39.5749	130.398	21.7133	-59.8316	130.031	-0.125232	-29.7889	149.574	38.1779	-36.4782	149.125	9.62621	-49.5206	141.193	-5.69411	-17.1841	167.227	41.4955	-26.6153	165.317	21.0437	-49.1601	150.503	-0.635628	-30.7088	147.335	47.2816	21.3692	148.437	37.6305	46.9042	116.543	41.3031	30.1828	
251	2.09167	99.3279	3.62042	26.604	101.73	-11.5428	-2.28668	107.367	-12.1664	-30.1974	130.179	-0.478559	-48.4686	99.6948	47.9012	-28.407	97.9968	39.9372	-61.2656	110.562	7.31812	-65.4012	122.947	47.0831	-38.854	128.202	21.7734	-59.8427	127.575	-1.05445	-32.5461	145.745	38.2363	-38.3394	149.463	9.69378	-50.7928	140.048	-4.99383	-19.9349	168.831	43.6929	-26.1058	165.39	25.4026	-50.0871	149.362	-0.471183	-38.1818	146.589	48.8306	18.4165	152.039	37.5294	45.8248	117.381	40.1992	30.3068	
252	2.1	100.924	2.09994	27.0036	100.02	-10.7913	-5.69551	107.23	-11.2344	-32.0075	128.269	-2.47978	-44.2554	104.13	49.7674	-28.559	100.753	41.3293	-60.6849	107.653	8.22583	-66.3576	124.484	47.7158	-39.2426	130.29	26.2632	-61.1855	128.1	0.921616	-30.3766	145.988	38.6796	-37.6018	149.104	11.0348	-51.7111	140.856	-5.91602	-21.0411	164.355	44.6155	-25.361	169.655	29.5557	-50.9409	155.872	0.120289	-45.1374	149.551	48.4015	20.394	152.681	37.7666	48.065	119.501	40.1965	32.299	
253	2.10833	100.593	2.92626	25.8843	101.466	-11.8292	-0.80437	107.12	-9.93383	-34.2833	129.215	0.673513	-47.6251	98.9751	49.3428	-27.2592	97.8268	44.1038	-59.0529	106.096	15.4097	-67.8656	121.816	48.7538	-37.6138	129.886	26.0552	-60.852	128.266	0.975562	-33.2854	147.403	40.8202	-38.1375	148.067	14.9502	-51.4752	141.285	-5.84226	-23.867	167.95	45.3662	-23.4306	170.07	35.6594	-49.9273	159.655	3.77614	-54.3793	148.388	47.0947	19.2374	147.366	39.1093	49.3809	118.648	40.0734	33.982	
254	2.11667	103.235	1.94622	29.1331	102.254	-10.3045	-1.76756	108.346	-7.43905	-29.5405	133.174	3.70335	-38.207	101.578	52.1445	-28.9529	100.589	47.7014	-56.448	106.02	13.6169	-67.7509	122.36	51.0579	-35.4405	128.184	31.3977	-61.776	130.073	2.91159	-36.0463	146.553	41.4604	-37.3123	147.442	14.384	-52.9175	142.112	-7.03031	-25.5746	169.814	46.7798	-22.8188	167.021	35.3314	-51.684	160.62	8.57109	-57.8904	150.255	47.4474	23.1076	146.368	38.9051	47.8291	116.446	37.9366	35.2272	
255	2.125	101.406	1.29003	31.1589	99.8682	-6.49667	-4.17092	107.375	-3.94778	-32.4231	136.635	8.81165	-38.5223	100.802	50.6283	-23.6788	96.9625	49.6236	-56.668	105.707	17.5156	-69.448	123.636	54.0875	-35.8207	128.557	37.7464	-62.6375	131.132	5.87429	-48.4213	146.833	41.2869	-33.9204	148.541	12.4747	-53.3825	142.878	-8.83962	-31.8574	170.54	46.0312	-22.0268	171.85	36.5373	-50.4279	163.828	12.7306	-63.486	148.931	46.7459	20.1996	148.683	36.6445	51.8403	115.59	37.1235	33.6218	
256	2.13333	102.574	5.57686	27.6779	101.221	-3.7743	-3.30059	110.181	2.61065	-29.9838	134.036	11.3548	-34.0093	101.529	53.3389	-25.4584	94.7046	53.5646	-54.4162	103.26	24.8736	-71.2127	127.049	55.661	-32.4037	130.11	41.4881	-63.2873	129.391	5.24075	-53.4799	143.765	40.9354	-38.4492	151.027	15.752	-53.6154	142.679	-10.7488	-35.5976	170.627	46.6561	-24.7605	171.304	37.7519	-51.1217	169.436	18.1322	-67.9073	146.481	46.9669	21.8707	147.673	38.672	49.4011	119.718	39.654	36.9157	
257	2.14167	100.401	3.25919	30.8037	101.909	-2.66103	-1.33246	108.28	1.88728	-29.229	134.2	14.7708	-35.7003	96.8055	53.5953	-24.5298	96.3035	53.5165	-56.3916	101.262	29.5873	-73.0532	122.633	57.2889	-33.7828	127.655	45.0297	-62.7565	131.105	7.46134	-58.2773	144.337	42.4549	-36.6826	148.522	15.8833	-54.0061	141.05	-9.69985	-36.4869	170.177	45.3712	-22.8178	175.112	40.7774	-47.5039	173.136	21.4448	-72.5116	148.493	47.5803	19.4487	149.506	39.0858	49.406	118.821	38.5735	36.7368	
